<svg aria-hidden="true" style="width:0;height:0;position:absolute;overflow:hidden" xmlns="http://www.w3.org/2000/svg"><defs><symbol id="icon-arrow-left" viewBox="0 0 32 32"><path stroke-linejoin="round" stroke-linecap="round" stroke-width="2.667" d="M25.333 16H6.666M16 25.334l-9.333-9.333L16 6.668"/></symbol><symbol id="icon-arrow-right" viewBox="0 0 32 32"><path stroke-linejoin="round" stroke-linecap="round" stroke-width="2.667" d="M6.667 16h18.667M16 25.334l9.333-9.333L16 6.668"/></symbol><symbol id="icon-close" viewBox="0 0 32 32"><path stroke-width="2.133" d="m8.533 8.533 14.933 14.933m-14.933.001L23.466 8.534"/></symbol><symbol id="icon-film" viewBox="0 0 32 32"><path fill="transparent" stroke="#818181" style="stroke:var(--color1,#fff)" stroke-linejoin="round" stroke-linecap="round" stroke-width="2.667" d="M26.427 2.667H5.574a2.907 2.907 0 0 0-2.907 2.907v20.853a2.907 2.907 0 0 0 2.907 2.907h20.853a2.907 2.907 0 0 0 2.907-2.907V5.574a2.907 2.907 0 0 0-2.907-2.907zm-17.094 0v26.667M22.667 2.667v26.667M2.667 16h26.667M2.667 9.333h6.667M2.667 22.667h6.667m13.333 0h6.667M22.667 9.333h6.667"/></symbol><symbol id="icon-heart" viewBox="0 0 32 32"><path fill="#ff6b08" style="fill:var(--color2,#ff6b08)" d="m16 30.583-2.24-2.24C5.44 20.983 0 16.023 0 9.943c0-4.96 3.84-8.8 8.8-8.8 2.72 0 5.44 1.28 7.2 3.36 1.76-2.08 4.48-3.36 7.2-3.36 4.96 0 8.8 3.84 8.8 8.8 0 6.08-5.44 11.04-13.76 18.4L16 30.583z"/></symbol><symbol id="icon-search-2" viewBox="0 0 30 30"><path fill="none" stroke="#fff" style="stroke:var(--color3,#fff)" stroke-linejoin="round" stroke-linecap="round" stroke-width="2.667" d="M14.667 25.333c5.891 0 10.667-4.776 10.667-10.667S20.558 3.999 14.667 3.999 4 8.775 4 14.666s4.776 10.667 10.667 10.667zM28 28.001l-5.8-5.8"/></symbol><symbol id="icon-instagram" viewBox="0 0 32 32"><path d="M16 2.881c4.275 0 4.781.019 6.462.094 1.563.069 2.406.331 2.969.55a4.952 4.952 0 0 1 1.837 1.194 5.015 5.015 0 0 1 1.2 1.838c.219.563.481 1.412.55 2.969.075 1.688.094 2.194.094 6.463s-.019 4.781-.094 6.463c-.069 1.563-.331 2.406-.55 2.969a4.94 4.94 0 0 1-1.194 1.837 5.02 5.02 0 0 1-1.837 1.2c-.563.219-1.413.481-2.969.55-1.688.075-2.194.094-6.463.094s-4.781-.019-6.463-.094c-1.563-.069-2.406-.331-2.969-.55a4.952 4.952 0 0 1-1.838-1.194 5.02 5.02 0 0 1-1.2-1.837c-.219-.563-.481-1.413-.55-2.969-.075-1.688-.094-2.194-.094-6.463s.019-4.781.094-6.463c.069-1.563.331-2.406.55-2.969a4.964 4.964 0 0 1 1.194-1.838 5.015 5.015 0 0 1 1.838-1.2c.563-.219 1.412-.481 2.969-.55 1.681-.075 2.188-.094 6.463-.094zM16 0c-4.344 0-4.887.019-6.594.094-1.7.075-2.869.35-3.881.744-1.056.412-1.95.956-2.837 1.85a7.833 7.833 0 0 0-1.85 2.831C.444 6.538.169 7.7.094 9.4.019 11.113 0 11.656 0 16s.019 4.887.094 6.594c.075 1.7.35 2.869.744 3.881.413 1.056.956 1.95 1.85 2.837a7.82 7.82 0 0 0 2.831 1.844c1.019.394 2.181.669 3.881.744 1.706.075 2.25.094 6.594.094s4.888-.019 6.594-.094c1.7-.075 2.869-.35 3.881-.744 1.05-.406 1.944-.956 2.831-1.844s1.438-1.781 1.844-2.831c.394-1.019.669-2.181.744-3.881.075-1.706.094-2.25.094-6.594s-.019-4.887-.094-6.594c-.075-1.7-.35-2.869-.744-3.881a7.506 7.506 0 0 0-1.831-2.844A7.82 7.82 0 0 0 26.482.843C25.463.449 24.301.174 22.601.099c-1.712-.081-2.256-.1-6.6-.1z"/><symbol id="icon-exit" viewBox="0 0 32 32"><path d="m26.667 7.303-1.97-1.97-7.808 7.808-7.808-7.808-1.97 1.97 7.808 7.808-7.808 7.808 1.97 1.97 7.808-7.808 7.808 7.808 1.97-1.97-7.808-7.808 7.808-7.808z"/></symbol><path d="M16 7.781c-4.537 0-8.219 3.681-8.219 8.219s3.681 8.219 8.219 8.219 8.219-3.681 8.219-8.219A8.221 8.221 0 0 0 16 7.781zm0 13.55a5.331 5.331 0 1 1 0-10.663 5.331 5.331 0 0 1 0 10.663zM26.462 7.456a1.919 1.919 0 1 1-3.838 0 1.919 1.919 0 0 1 3.838 0z"/></symbol><symbol id="icon-twitter" viewBox="0 0 32 32"><path d="M32 7.075a12.941 12.941 0 0 1-3.769 1.031 6.601 6.601 0 0 0 2.887-3.631 13.21 13.21 0 0 1-4.169 1.594A6.565 6.565 0 0 0 22.155 4a6.563 6.563 0 0 0-6.563 6.563c0 .512.056 1.012.169 1.494A18.635 18.635 0 0 1 2.23 5.195a6.56 6.56 0 0 0-.887 3.3 6.557 6.557 0 0 0 2.919 5.463 6.565 6.565 0 0 1-2.975-.819v.081a6.565 6.565 0 0 0 5.269 6.437 6.574 6.574 0 0 1-2.968.112 6.588 6.588 0 0 0 6.131 4.563 13.17 13.17 0 0 1-9.725 2.719 18.568 18.568 0 0 0 10.069 2.95c12.075 0 18.681-10.006 18.681-18.681 0-.287-.006-.569-.019-.85A13.216 13.216 0 0 0 32 7.076z"/></symbol><symbol id="icon-youtube" viewBox="0 0 32 32"><path d="M31.681 9.6s-.313-2.206-1.275-3.175C29.187 5.15 27.825 5.144 27.2 5.069c-4.475-.325-11.194-.325-11.194-.325h-.012s-6.719 0-11.194.325c-.625.075-1.987.081-3.206 1.356C.631 7.394.325 9.6.325 9.6s-.319 2.588-.319 5.181v2.425c0 2.587.319 5.181.319 5.181s.313 2.206 1.269 3.175c1.219 1.275 2.819 1.231 3.531 1.369 2.563.244 10.881.319 10.881.319s6.725-.012 11.2-.331c.625-.075 1.988-.081 3.206-1.356.962-.969 1.275-3.175 1.275-3.175s.319-2.587.319-5.181v-2.425c-.006-2.588-.325-5.181-.325-5.181zM12.694 20.15v-8.994l8.644 4.513-8.644 4.481z"/></symbol><symbol id="icon-youtube2" viewBox="0 0 80 32"><path d="M10.75 5.294a.449.449 0 0 0 .012-.056l.033-.236-1.48-.008c-1.337-.008-1.746 0-1.783.034-.018.016-.479 1.77-1.302 4.946-.392 1.515-.723 2.725-.734 2.689s-.481-1.766-1.044-3.843c-.563-2.078-1.034-3.789-1.048-3.803-.019-.019-1.812-.028-3.263-.016-.21.002-.327-.41 1.876 6.598.305.97.762 2.344 1.015 3.052.292.817.5 1.448.642 1.974.251 1.002.26 1.63.205 2.363-.063.847-.073 6.826-.011 6.926.047.077 2.851.112 3.116.04.042-.012.071-.053.09-.279.066-.194.071-.968.071-4.18v-4.103l.179-.566c.117-.37.413-1.344.656-2.163s.538-1.801.654-2.18c1.057-3.447 2.067-6.838 2.094-7.032l.022-.158zM26.441 10.27l-.001.214h-.033l-.019 5.906-.018 5.726-.458.467c-.513.522-.925.722-1.297.629-.405-.102-.395.056-.429-6.712l-.031-6.23h-2.947v.214h-.034v6.759c0 7.242 0 7.237.367 7.965.293.579.719.861 1.45.958.962.128 2-.308 2.962-1.244l.418-.407v.701c0 .606.017.706.127.737.18.05 2.412.053 2.653.004l.2-.041v-.207l.034-.007V10.23l-2.944.039zM18.965 13.323c-.279-1.198-.802-2.004-1.664-2.561-1.353-.875-2.897-.967-4.331-.259-1.045.516-1.717 1.372-2.065 2.628-.041.15-.072.275-.095.463-.088.443-.099 1.105-.122 4.186-.035 4.748.019 5.313.614 6.391.583 1.058 1.794 1.833 3.112 1.993.397.048 1.201-.027 1.663-.155 1.051-.291 2.058-1.122 2.504-2.065.192-.407.309-.691.379-1.208.13-.707.14-1.849.14-4.762 0-3.715-.012-4.121-.136-4.651zM15.604 23c-.247.188-.679.27-1.031.195-.271-.058-.636-.482-.748-.869-.14-.482-.151-7.187-.03-8.502.199-.658.756-1.002 1.364-.838.474.128.716.424.854 1.046.103.461.115 1.035.093 4.414-.014 2.241-.022 3.336-.096 3.924-.074.371-.197.47-.407.63zM71.887 16.692h1.424l-.023-1.29c-.022-1.183-.039-1.319-.198-1.64-.249-.507-.617-.731-1.201-.731-.701 0-1.146.339-1.356 1.036-.089.296-.183 2.334-.116 2.51.038.098.241.116 1.469.116zM62.369 13.757c-.19-.383-.543-.571-.954-.556-.319.011-.674.146-1.015.407l-.254.193v9.269l.254.193c.576.439 1.209.532 1.644.241.172-.115.285-.274.372-.527.114-.329.124-.75.109-4.649-.015-4.064-.024-4.303-.157-4.57z"/><path d="M80.027 9.582c-.284-3.401-.509-4.505-1.211-5.923-.929-1.878-2.272-2.868-4.184-3.086-1.478-.168-7.041-.405-12.189-.52-8.912-.198-23.564.183-25.436.662-.865.221-1.513.597-2.188 1.269-1.183 1.177-1.887 2.865-2.17 5.2-.647 5.331-.66 11.773-.037 17.297.268 2.376.82 3.92 1.857 5.192.647.794 1.761 1.469 2.758 1.67.7.141 4.201.337 9.3.521.76.027 2.771.074 4.47.105 3.541.063 10.051.026 13.772-.079 2.504-.07 7.069-.255 7.922-.321.24-.019.796-.054 1.236-.079 1.477-.083 2.417-.393 3.3-1.086 1.142-.897 2.027-2.556 2.4-4.501.354-1.84.59-5.118.638-8.839.04-3.109-.013-4.787-.238-7.482zM44.54 8.35l-1.656.02-.073 17.661-1.435.018c-1.11.015-1.447-.001-1.474-.073-.019-.051-.042-4.032-.052-8.849l-.018-8.758-3.234-.041v-2.76l9.557.039.041 2.721-1.656.02zm10.154 10.122v7.595h-2.616v-.799c0-.601-.023-.799-.093-.799-.051 0-.288.198-.527.441-.517.526-1.13.949-1.653 1.145-1.083.405-2.112.169-2.551-.586-.401-.691-.409-.845-.409-8.01v-6.58h2.614l.02 6.196c.019 6.088.022 6.2.168 6.448.193.329.488.417.956.288.276-.076.464-.21.911-.654l.563-.561V10.879h2.616v7.595zm10.205 6.51c-.23.513-.744 1.016-1.165 1.14-1.099.324-1.98.06-2.998-.897-.316-.297-.61-.538-.654-.538-.053 0-.082.233-.082.69v.69h-2.616V5.572H60v3.343c0 1.839.025 3.343.054 3.343s.306-.244.613-.541c.707-.683 1.298-.981 2.049-1.038 1.338-.101 2.135.587 2.501 2.16.114.491.125 1.051.125 5.596 0 5.537-.001 5.56-.443 6.546zm11.069-3.039c-.023.57-.092 1.223-.154 1.454-.364 1.349-1.332 2.304-2.732 2.696-1.885.527-3.96-.337-4.788-1.994-.465-.93-.481-1.116-.481-5.662 0-3.707.013-4.162.132-4.667.336-1.431 1.168-2.357 2.578-2.871a3.917 3.917 0 0 1 1.261-.234c1.521-.031 3.031.787 3.663 2.119.427.899.48 1.283.522 3.816l.039 2.271-5.578.039-.02 1.526c-.029 2.153.116 2.815.697 3.207.489.329 1.24.305 1.649-.055.383-.337.491-.698.529-1.753l.034-.927h2.694l-.043 1.036z"/></symbol><symbol id="icon-appleinc" viewBox="0 0 32 32"><path d="M24.734 17.003c-.04-4.053 3.305-5.996 3.454-6.093-1.88-2.751-4.808-3.127-5.851-3.171-2.492-.252-4.862 1.467-6.127 1.467-1.261 0-3.213-1.43-5.28-1.392-2.716.04-5.221 1.579-6.619 4.012-2.822 4.897-.723 12.151 2.028 16.123 1.344 1.944 2.947 4.127 5.051 4.049 2.026-.081 2.793-1.311 5.242-1.311s3.138 1.311 5.283 1.271c2.18-.041 3.562-1.981 4.897-3.931 1.543-2.255 2.179-4.439 2.216-4.551-.048-.022-4.252-1.632-4.294-6.473zM20.705 5.11C21.822 3.755 22.576 1.875 22.37 0c-1.609.066-3.559 1.072-4.713 2.423-1.036 1.199-1.942 3.113-1.699 4.951 1.796.14 3.629-.913 4.747-2.264z"/></symbol><symbol id="icon-facebook" viewBox="0 0 32 32"><path d="M21.329 5.313h2.921V.225C23.746.156 22.013 0 19.994 0c-4.212 0-7.097 2.649-7.097 7.519V12H8.249v5.688h4.648V32h5.699V17.689h4.46l.708-5.688h-5.169V8.082c.001-1.644.444-2.769 2.735-2.769z"/></symbol><symbol id="icon-google-play" viewBox="0 0 107 32"><path d="M102.716 31.605H3.95A3.913 3.913 0 0 1 0 27.653V3.95A3.912 3.912 0 0 1 3.95 0h98.766a3.912 3.912 0 0 1 3.95 3.95v23.704c0 2.133-1.739 3.951-3.95 3.951z"/><path fill="#a6a6a6" d="M102.716.632a3.338 3.338 0 0 1 3.318 3.318v23.704a3.337 3.337 0 0 1-3.318 3.318H3.95a3.337 3.337 0 0 1-3.318-3.318V3.95A3.338 3.338 0 0 1 3.95.632h98.766zm0-.632H3.95A3.912 3.912 0 0 0 0 3.95v23.704a3.913 3.913 0 0 0 3.95 3.951h98.766a3.912 3.912 0 0 0 3.95-3.951V3.95c0-2.133-1.739-3.95-3.95-3.95z"/><path fill="#fff" d="M37.452 8.059c0 .632-.158 1.186-.553 1.58-.475.474-1.028.711-1.739.711s-1.264-.237-1.738-.711c-.475-.474-.711-1.027-.711-1.738s.236-1.265.711-1.739c.474-.474 1.026-.711 1.737-.711.316 0 .632.079.948.237s.553.316.711.553l-.396.395c-.316-.395-.711-.553-1.264-.553-.474 0-.948.158-1.264.553-.396.316-.553.791-.553 1.343 0 .554.157 1.028.553 1.344s.79.553 1.264.553c.553 0 .948-.158 1.343-.553a1.31 1.31 0 0 0 .396-.948h-1.739v-.553h2.293v.236zm3.634-1.975h-2.133v1.501h1.975v.553h-1.975v1.501h2.133v.632h-2.765v-4.74h2.765zm2.607 4.187h-.632V6.083h-1.343V5.53h3.318v.553h-1.343zm3.635 0v-4.74h.632v4.74zm3.318 0h-.632V6.083h-1.343V5.53h3.24v.553h-1.344v4.188zm7.507-.632c-.475.474-1.028.711-1.739.711s-1.264-.237-1.738-.711c-.475-.474-.711-1.027-.711-1.738s.236-1.265.711-1.739c.474-.474 1.027-.711 1.738-.711s1.264.237 1.739.711c.474.474.711 1.028.711 1.739s-.237 1.264-.711 1.738zm-3.003-.395c.316.316.79.553 1.264.553s.948-.158 1.264-.553c.316-.316.554-.791.554-1.343 0-.554-.158-1.028-.554-1.344-.316-.316-.789-.553-1.264-.553s-.948.158-1.264.553c-.316.316-.553.791-.553 1.344s.158 1.027.553 1.342zm4.583 1.027v-4.74h.711l2.291 3.714V5.531h.632v4.74h-.632L60.286 6.4v3.871zM53.807 17.225c-1.896 0-3.397 1.422-3.397 3.397 0 1.896 1.501 3.397 3.397 3.397s3.398-1.422 3.398-3.397c0-2.054-1.502-3.397-3.398-3.397zm0 5.372c-1.027 0-1.896-.869-1.896-2.053 0-1.186.869-2.055 1.896-2.055s1.897.79 1.897 2.054c0 1.185-.869 2.054-1.897 2.054zm-7.347-5.372c-1.897 0-3.398 1.422-3.398 3.397 0 1.896 1.502 3.397 3.398 3.397s3.397-1.422 3.397-3.397c0-2.054-1.501-3.397-3.397-3.397zm0 5.372c-1.028 0-1.897-.869-1.897-2.053 0-1.186.869-2.055 1.897-2.055s1.896.79 1.896 2.054c0 1.185-.869 2.054-1.896 2.054zm-8.771-4.345v1.422h3.397c-.079.791-.395 1.422-.79 1.818-.474.474-1.264 1.027-2.607 1.027-2.133 0-3.714-1.659-3.714-3.792s1.66-3.793 3.714-3.793c1.106 0 1.975.474 2.607 1.028l1.028-1.028c-.869-.79-1.975-1.422-3.556-1.422-2.844 0-5.294 2.371-5.294 5.215s2.45 5.214 5.294 5.214c1.58 0 2.686-.474 3.635-1.501.947-.948 1.263-2.291 1.263-3.318 0-.316 0-.632-.079-.869h-4.899zm35.872 1.106c-.316-.791-1.107-2.133-2.844-2.133s-3.161 1.342-3.161 3.397c0 1.896 1.422 3.397 3.318 3.397 1.502 0 2.45-.948 2.765-1.501l-1.106-.79c-.395.554-.869.948-1.66.948s-1.264-.316-1.659-1.027l4.503-1.897-.157-.395zm-4.583 1.106c0-1.264 1.028-1.975 1.739-1.975.553 0 1.106.316 1.264.711l-3.003 1.264zm-3.714 3.24h1.502v-9.876h-1.502v9.876zm-2.37-5.769c-.396-.395-1.028-.789-1.818-.789-1.66 0-3.239 1.501-3.239 3.397s1.501 3.318 3.239 3.318c.79 0 1.422-.395 1.739-.789h.079v.474c0 1.264-.711 1.975-1.818 1.975-.869 0-1.501-.632-1.66-1.185l-1.264.553c.396.869 1.343 1.975 3.003 1.975 1.739 0 3.161-1.027 3.161-3.476v-6.005h-1.422v.553zm-1.738 4.663c-1.028 0-1.896-.869-1.896-2.053 0-1.186.868-2.055 1.896-2.055s1.817.869 1.817 2.054-.789 2.054-1.817 2.054zm19.279-8.77h-3.556v9.876h1.501v-3.713h2.053c1.66 0 3.24-1.185 3.24-3.082s-1.58-3.081-3.239-3.081zm.079 4.741h-2.133v-3.397h2.133c1.106 0 1.738.948 1.738 1.659-.079.869-.711 1.739-1.738 1.739zm9.086-1.422c-1.106 0-2.212.474-2.607 1.501l1.342.553c.316-.553.791-.711 1.344-.711.79 0 1.501.474 1.58 1.264v.08c-.237-.159-.869-.396-1.502-.396-1.422 0-2.844.79-2.844 2.212 0 1.342 1.186 2.212 2.45 2.212 1.028 0 1.502-.474 1.897-.948h.079v.79h1.422V19.91c-.158-1.739-1.502-2.765-3.161-2.765zm-.158 5.451c-.474 0-1.185-.236-1.185-.869 0-.789.869-1.027 1.58-1.027.631 0 .948.158 1.342.316-.157.948-.948 1.58-1.738 1.58zm8.297-5.214-1.66 4.267H96l-1.739-4.267h-1.58l2.607 6.004-1.501 3.318h1.501l4.029-9.323h-1.58zm-13.275 6.32h1.502v-9.876h-1.502v9.876zM8.217 5.925c-.236.237-.395.633-.395 1.108v17.461c0 .475.158.869.395 1.107l.08.079 9.797-9.798v-.158L8.217 5.927z"/><path fill="#fff" d="m21.333 19.2-3.239-3.24v-.237l3.239-3.238.079.08 3.871 2.212c1.107.632 1.107 1.66 0 2.292l-3.95 2.132z"/><path fill="#fff" d="m21.412 19.121-3.318-3.318-9.877 9.876c.396.396.948.396 1.66.08l11.536-6.637zM21.412 12.484 9.875 5.926c-.71-.395-1.262-.315-1.659.08l9.877 9.797 3.318-3.319z"/><path opacity=".2" d="M21.333 19.042 9.876 25.521c-.631.395-1.185.316-1.58 0l-.078.079.078.079c.396.316.948.395 1.58 0l11.458-6.637z"/><path opacity=".12" d="M8.218 25.521c-.237-.238-.316-.632-.316-1.107v.08c0 .474.158.868.395 1.106v-.08h-.078z"/><path fill="#fff" opacity=".12" d="m25.284 16.829-3.95 2.212.079.079 3.871-2.212c.554-.316.791-.711.791-1.106 0 .395-.316.711-.791 1.027z"/><path fill="#fff" opacity=".25" d="m9.876 6.004 15.407 8.771c.475.316.791.632.791 1.028 0-.396-.237-.791-.791-1.107L9.876 5.925c-1.106-.631-1.974-.078-1.974 1.186v.079c-.001-1.265.868-1.818 1.973-1.186z"/></symbol><symbol id="icon-app-store" viewBox="0 0 96 32"><path fill="#a6a6a6" d="M88.108 0H7.628c-.293 0-.583 0-.876.002-.245.002-.488.006-.735.01-.571.007-1.125.058-1.666.15l.063-.009a5.324 5.324 0 0 0-1.551.516l.03-.014a5.18 5.18 0 0 0-1.295.943c-.373.37-.687.798-.929 1.269l-.013.028A5.172 5.172 0 0 0 .16 4.386l-.004.031a10.005 10.005 0 0 0-.143 1.595v.007c-.007.245-.008.491-.012.737v18.491c.004.248.005.489.012.738.007.571.059 1.124.152 1.663l-.009-.062c.097.571.271 1.082.514 1.553l-.014-.029c.255.497.57.923.942 1.291l.001.001c.369.373.797.687 1.267.93l.028.013c.44.229.95.405 1.488.5l.032.005c.477.083 1.031.134 1.596.141h.008c.247.005.49.009.735.009.293.002.582.002.876.002h80.48c.288 0 .58 0 .867-.002.244 0 .494-.003.738-.009a10.633 10.633 0 0 0 1.663-.15l-.063.009a5.416 5.416 0 0 0 1.557-.519l-.031.014a5.043 5.043 0 0 0 1.293-.943c.372-.369.687-.795.932-1.263l.013-.028c.227-.441.4-.953.491-1.492l.004-.031a10.4 10.4 0 0 0 .148-1.591v-.01c.003-.248.003-.489.003-.738.006-.291.006-.58.006-.875V7.631c0-.293 0-.584-.006-.873 0-.245 0-.491-.003-.737a10.878 10.878 0 0 0-.158-1.666l.009.064a5.28 5.28 0 0 0-.509-1.553l.014.03A5.207 5.207 0 0 0 92.867.67l-.029-.014a5.285 5.285 0 0 0-1.494-.497l-.032-.005a10.001 10.001 0 0 0-1.594-.141h-.006c-.244-.004-.494-.009-.738-.01-.288-.002-.58-.002-.867-.002z"/><path d="M6.756 31.3c-.244 0-.482-.003-.723-.009a10.135 10.135 0 0 1-1.555-.139l.059.008a4.69 4.69 0 0 1-1.352-.451l.026.012a4.338 4.338 0 0 1-1.117-.813 4.27 4.27 0 0 1-.805-1.093l-.011-.024a4.483 4.483 0 0 1-.431-1.299l-.004-.027a9.614 9.614 0 0 1-.133-1.493v-.007c-.005-.169-.012-.73-.012-.73V6.755s.007-.553.012-.716c.007-.534.055-1.052.141-1.556l-.008.059c.084-.498.235-.945.447-1.356l-.012.026a4.47 4.47 0 0 1 1.909-1.924l.025-.012A4.558 4.558 0 0 1 4.507.845l.028-.004A9.75 9.75 0 0 1 6.029.71h.007L6.758.7l82.945.01c.53.006 1.044.054 1.545.138L91.19.84c.501.087.95.239 1.364.451l-.027-.012a4.506 4.506 0 0 1 1.92 1.911l.012.025a4.5 4.5 0 0 1 .424 1.292l.004.027c.078.447.129.968.139 1.5v.01c.002.227.002.47.002.712.006.3.006.586.006.873v16.743c0 .291 0 .574-.006.86 0 .26 0 .498-.003.744a10.31 10.31 0 0 1-.145 1.543l.009-.06c-.082.5-.233.949-.444 1.362l.012-.026a4.416 4.416 0 0 1-.812 1.108 4.377 4.377 0 0 1-1.095.807l-.024.011c-.386.2-.834.353-1.306.436l-.028.004a9.565 9.565 0 0 1-1.489.13h-.007c-.234.005-.48.009-.718.009l-.867.002z"/><path fill="#fff" d="M19.815 16.241a3.958 3.958 0 0 1 1.869-3.312l.017-.01a4.052 4.052 0 0 0-3.186-1.726h-.006c-1.343-.141-2.646.804-3.33.804-.698 0-1.752-.79-2.887-.767a4.252 4.252 0 0 0-3.567 2.161l-.011.021c-1.547 2.679-.393 6.616 1.089 8.781.742 1.06 1.608 2.245 2.742 2.203 1.11-.046 1.524-.708 2.864-.708 1.327 0 1.716.708 2.873.681 1.191-.019 1.941-1.065 2.656-2.135.506-.71.92-1.531 1.198-2.412l.017-.062a3.831 3.831 0 0 1-2.335-3.519zM17.63 9.769a3.876 3.876 0 0 0 .891-2.806l.001.014A3.967 3.967 0 0 0 15.96 8.3l-.004.004a3.692 3.692 0 0 0-.915 2.7l-.001-.011h.034c1.03 0 1.95-.475 2.551-1.218l.005-.006zM33.842 21.712h-3.787l-.909 2.685h-1.604l3.587-9.934h1.666l3.587 9.934h-1.631zm-3.395-1.239h3.002l-1.48-4.358h-.041zM44.128 20.776c0 2.251-1.205 3.697-3.023 3.697a2.454 2.454 0 0 1-2.272-1.255l-.006-.012h-.034v3.587h-1.487v-9.639h1.439v1.205h.027a2.573 2.573 0 0 1 2.31-1.281h-.004c1.838 0 3.05 1.453 3.05 3.698zm-1.528 0c0-1.466-.758-2.43-1.914-2.43-1.136 0-1.9.984-1.9 2.43 0 1.459.764 2.437 1.9 2.437 1.156 0 1.914-.957 1.914-2.437zM52.1 20.776c0 2.251-1.205 3.697-3.023 3.697a2.454 2.454 0 0 1-2.272-1.255l-.006-.012h-.034v3.587h-1.487v-9.639h1.439v1.205h.027a2.573 2.573 0 0 1 2.31-1.281h-.004c1.838 0 3.05 1.453 3.05 3.698zm-1.528 0c0-1.466-.758-2.43-1.914-2.43-1.136 0-1.9.984-1.9 2.43 0 1.459.764 2.437 1.9 2.437 1.156 0 1.914-.957 1.914-2.437zM57.368 21.629c.11.985 1.067 1.632 2.375 1.632 1.253 0 2.155-.647 2.155-1.535 0-.771-.544-1.233-1.831-1.549l-1.288-.31c-1.824-.441-2.671-1.294-2.671-2.678 0-1.714 1.494-2.891 3.615-2.891 2.099 0 3.538 1.177 3.587 2.891h-1.501c-.09-.991-.909-1.59-2.107-1.59s-2.017.605-2.017 1.487c0 .702.523 1.116 1.804 1.432l1.095.269c2.038.482 2.885 1.301 2.885 2.754 0 1.859-1.48 3.023-3.835 3.023-2.203 0-3.691-1.137-3.787-2.934zM66.677 15.44v1.714h1.377v1.177h-1.377v3.993c0 .62.276.909.881.909.176-.003.345-.016.512-.037l-.023.002v1.17a3.986 3.986 0 0 1-.75.069l-.08-.001h.004c-1.466 0-2.038-.551-2.038-1.955v-4.152H64.13v-1.177h1.053v-1.714zM68.852 20.776c0-2.279 1.342-3.711 3.435-3.711 2.1 0 3.436 1.432 3.436 3.711 0 2.285-1.329 3.711-3.436 3.711s-3.435-1.426-3.435-3.711zm5.356 0c0-1.563-.716-2.486-1.921-2.486s-1.92.93-1.92 2.486c0 1.57.716 2.485 1.92 2.485s1.921-.916 1.921-2.485zM76.949 17.154h1.418v1.233h.034a1.732 1.732 0 0 1 1.745-1.309h-.003.008c.178 0 .351.02.517.058l-.015-.003v1.391a2.022 2.022 0 0 0-.607-.091l-.064.001h.003l-.061-.001a1.498 1.498 0 0 0-1.488 1.675l-.001-.007v4.296h-1.487zM87.507 22.27c-.2 1.315-1.48 2.217-3.119 2.217-2.107 0-3.415-1.412-3.415-3.677 0-2.272 1.315-3.745 3.352-3.745 2.004 0 3.264 1.377 3.264 3.573v.509h-5.116v.09a1.886 1.886 0 0 0 1.879 2.052l.073-.001h-.004a1.64 1.64 0 0 0 1.669-1.008l.004-.011zm-5.025-2.162h3.621a1.742 1.742 0 0 0-1.739-1.839h-.039.002-.011a1.834 1.834 0 0 0-1.834 1.834v.005zM30.261 6.985a2.112 2.112 0 0 1 2.245 2.383l.001-.011c0 1.525-.824 2.402-2.246 2.402h-1.724V6.986zm-.983 4.098h.9a1.501 1.501 0 0 0 1.574-1.725l.001.008a1.505 1.505 0 0 0-1.578-1.707h.004-.9zM33.345 9.955a1.707 1.707 0 1 1 3.398.007l.001-.007a1.707 1.707 0 1 1-3.397-.008l-.001.007zm2.666 0c0-.781-.351-1.238-.966-1.238-.618 0-.966.457-.966 1.238 0 .787.348 1.24.966 1.24.616 0 .966-.456.966-1.24zM41.259 11.758h-.737l-.745-2.653h-.056l-.741 2.653h-.73l-.993-3.602h.721l.645 2.749h.053l.741-2.749h.682l.741 2.749h.056l.642-2.749h.711zM43.083 8.156h.684v.572h.053a1.08 1.08 0 0 1 1.079-.641h-.004a1.172 1.172 0 0 1 1.247 1.347l.001-.007v2.332h-.711V9.606c0-.579-.252-.867-.777-.867l-.038-.001a.826.826 0 0 0-.821.917v-.004 2.107h-.711zM47.275 6.75h.711v5.009h-.711zM48.974 9.955a1.707 1.707 0 1 1 3.398.007l.001-.007a1.707 1.707 0 1 1-3.397-.007l-.001.007zm2.667 0c0-.781-.351-1.238-.966-1.238-.618 0-.966.457-.966 1.238 0 .787.348 1.24.966 1.24.616 0 .966-.456.966-1.24zM53.121 10.739c0-.648.483-1.022 1.34-1.075l.976-.056v-.311c0-.38-.252-.595-.737-.595-.397 0-.672.146-.751.4h-.688c.073-.619.655-1.016 1.472-1.016.903 0 1.413.45 1.413 1.211v2.461h-.684v-.506h-.056a1.213 1.213 0 0 1-1.026.567l-.059-.001h.003a1.088 1.088 0 0 1-1.201-1.078zm2.315-.307v-.301l-.88.056c-.496.033-.721.202-.721.52 0 .324.281.513.668.513a.849.849 0 0 0 .933-.785v-.003zM57.079 9.955c0-1.138.585-1.859 1.495-1.859l.055-.001c.453 0 .847.254 1.047.627l.003.006h.053V6.749h.711v5.009h-.681v-.569h-.056c-.22.379-.623.629-1.085.629l-.048-.001h.002c-.916 0-1.495-.721-1.495-1.862zm.734 0c0 .764.36 1.224.962 1.224.599 0 .97-.466.97-1.221 0-.751-.374-1.224-.97-1.224-.598 0-.963.463-.963 1.221zM63.384 9.955a1.707 1.707 0 1 1 3.398.007l.001-.007a1.707 1.707 0 1 1-3.397-.008l-.001.007zm2.666 0c0-.781-.351-1.238-.966-1.238-.618 0-.966.457-.966 1.238 0 .787.348 1.24.966 1.24.616 0 .966-.456.966-1.24zM67.736 8.156h.684v.572h.053a1.08 1.08 0 0 1 1.079-.641h-.004a1.172 1.172 0 0 1 1.247 1.347l.001-.007v2.332h-.711V9.606c0-.579-.252-.867-.777-.867l-.038-.001a.826.826 0 0 0-.821.917v-.004 2.107h-.711zM74.812 7.259v.913h.78v.599h-.78v1.852c0 .377.155.543.509.543.096 0 .19-.006.283-.018l-.011.001v.592a2.181 2.181 0 0 1-.385.036h-.001c-.791 0-1.105-.278-1.105-.973V8.77h-.572v-.599h.572v-.913zM76.564 6.75h.705v1.985h.056a1.11 1.11 0 0 1 1.103-.645h-.004l.064-.002a1.187 1.187 0 0 1 1.176 1.351l.001-.006v2.326h-.712v-2.15c0-.575-.268-.867-.77-.867a.842.842 0 0 0-.907.917v-.003 2.104h-.711zM83.809 10.786a1.466 1.466 0 0 1-1.567 1.042l.007.001-.043.001a1.636 1.636 0 0 1-1.62-1.868l-.001.009a1.66 1.66 0 0 1 1.646-1.882h.015-.001c1.002 0 1.607.685 1.607 1.816v.248h-2.544v.04a.952.952 0 0 0 .949 1.032h.011-.001a.864.864 0 0 0 .855-.433l.002-.004zm-2.501-1.161h1.82l.002-.064a.869.869 0 0 0-.869-.869h-.021.001-.012a.92.92 0 0 0-.921.921v.013-.001z"/></symbol><symbol id="icon-favorite" viewBox="0 0 34 32"><path fill="#ff6b08" style="fill:var(--color1,#ff6b08)" d="m17.231 31.754-2.462-2.462C5.907 21.415 0 16 0 9.6 0 3.938 4.185 0 9.6 0c2.708 0 5.662 1.477 7.631 3.692C19.2 1.23 22.154 0 25.108 0c5.169 0 9.354 4.185 9.354 9.6 0 6.4-5.908 11.815-14.769 19.692l-2.462 2.462z"/></symbol><symbol id="icon-telegram" viewBox="0 0 34 32"><path d="m10.831 17.17 1.898 5.254s.237.492.491.492 4.034-3.932 4.034-3.932l4.203-8.119-10.559 4.949z"/><path d="m13.347 18.517-.364 3.873s-.153 1.187 1.034 0 2.322-2.102 2.322-2.102z"/><path d="M10.865 17.357 6.96 16.085s-.467-.189-.316-.619c.031-.089.093-.164.28-.293.865-.603 16.014-6.048 16.014-6.048s.428-.144.68-.048a.37.37 0 0 1 .251.272v.002c.022.088.035.189.035.293l-.001.054v-.003c-.001.1-.013.193-.023.339-.092 1.489-2.853 12.599-2.853 12.599s-.165.65-.757.672l-.035.001c-.294 0-.56-.117-.755-.306-1.161-.999-5.176-3.697-6.063-4.29a.168.168 0 0 1-.073-.119v-.001c-.012-.063.056-.14.056-.14s6.99-6.213 7.176-6.866c.014-.051-.04-.075-.113-.053-.464.171-8.513 5.253-9.401 5.814a.408.408 0 0 1-.2.011h.003z"/></symbol><symbol id="icon-ukraine" viewBox="0 0 48 32"><path fill="#005bbb" style="fill:var(--color1,#005bbb)" d="M0 0h48v32H0V0z"/><path fill="#ffd500" style="fill:var(--color2,#ffd500)" d="M0 16h48v16H0V16z"/></symbol><symbol id="icon-eng" viewBox="0 0 43 32"><path fill="#012169" style="fill:var(--color1,#012169)" d="M0 0h42.667v32H0z"/><path fill="#fff" style="fill:var(--color2,#fff)" d="m5 0 16.267 12.067L37.467 0h5.2v4.133l-16 11.933 16 11.867V32h-5.333l-16-11.933L5.401 32h-5.4v-4l15.933-11.867L.001 4.266V-.001h5z"/><path fill="#c8102e" style="fill:var(--color3,#c8102e)" d="m28.267 18.733 14.4 10.6V32L24.6 18.733h3.667zM16 20.067l.4 2.333L3.6 32H0l16-11.933zM42.667 0v.2l-16.6 12.533L26.2 9.8 39.333 0h3.333zM0 0l15.933 11.733h-4L0 2.8V0z"/><path fill="#fff" style="fill:var(--color2,#fff)" d="M16.067 0v32h10.667V0H16.067zM0 10.667v10.667h42.667V10.667H0z"/><path fill="#c8102e" style="fill:var(--color3,#c8102e)" d="M0 12.867v6.4h42.667v-6.4H0zM18.2 0v32h6.4V0h-6.4z"/></symbol><symbol id="icon-google-play-ua" viewBox="0 0 108 32"><path d="M4 0h100a4 4 0 0 1 4 4v24a4 4 0 0 1-4 4H4a4 4 0 0 1-4-4V4a4 4 0 0 1 4-4z"/><path fill="#a6a6a6" style="fill:var(--color2,#a6a6a6)" d="M104 .64A3.36 3.36 0 0 1 107.36 4v24a3.36 3.36 0 0 1-3.36 3.36H4A3.36 3.36 0 0 1 .64 28V4A3.36 3.36 0 0 1 4 .64h100zm0-.64H4a4.013 4.013 0 0 0-4 3.999V28a4.013 4.013 0 0 0 3.999 4H104a4.013 4.013 0 0 0 4-3.999V4a4.013 4.013 0 0 0-3.999-4H104z"/><path fill="#fff" style="fill:var(--color3,#fff)" d="M54.509 17.402a3.403 3.403 0 1 0 3.414 3.402v-.049a3.354 3.354 0 0 0-3.354-3.354l-.065.001h.003zm0 5.464a2.068 2.068 0 1 1 1.92-2.063l.002.094a1.969 1.969 0 0 1-1.92 1.968h-.002zm-7.451-5.464a3.403 3.403 0 1 0 3.415 3.402v-.049a3.354 3.354 0 0 0-3.354-3.354l-.066.001h.003zm0 5.464a2.068 2.068 0 1 1 1.92-2.063l.002.094a1.969 1.969 0 0 1-1.92 1.968h-.002zm-8.863-4.42v1.44h3.454a3.01 3.01 0 0 1-.788 1.82l.002-.002a3.527 3.527 0 0 1-2.674 1.057h.007a3.84 3.84 0 1 1 0-7.68h.048c.994 0 1.896.394 2.558 1.034l-.001-.001 1.018-1.018a5.023 5.023 0 0 0-3.545-1.457l-.081.001h.004-.065a5.285 5.285 0 1 0 0 10.57h.069-.003a4.817 4.817 0 0 0 3.684-1.481l.002-.002a4.749 4.749 0 0 0 1.25-3.385v.008-.04c0-.305-.029-.602-.085-.891l.005.029zm36.247 1.12a3.172 3.172 0 0 0-2.908-2.165h-.005a3.234 3.234 0 0 0-3.208 3.412v-.008l-.001.073a3.33 3.33 0 0 0 3.33 3.33h.05-.002.019c1.17 0 2.201-.594 2.81-1.496l.008-.012-1.16-.773a1.948 1.948 0 0 1-1.666.941h-.01.001l-.066.001a1.732 1.732 0 0 1-1.58-1.021l-.004-.011 4.55-1.882zm-4.64 1.134a1.866 1.866 0 0 1 1.774-1.98h.004a1.32 1.32 0 0 1 1.26.712l.003.007zm-3.7 3.3H67.6V14h-1.498zm-2.448-5.84H63.6a2.354 2.354 0 0 0-1.735-.761l-.059.001h.003a3.406 3.406 0 0 0-.007 6.804h.007l.061.001c.687 0 1.303-.298 1.728-.772l.002-.002h.051v.489c0 1.302-.696 2-1.817 2a1.884 1.884 0 0 1-1.71-1.199l-.004-.013-1.302.542a3.248 3.248 0 0 0 2.999 2.01h.018-.001c1.753 0 3.235-1.031 3.235-3.544v-6.109h-1.416zm-1.714 4.705a2.07 2.07 0 0 1-.008-4.124l.008-.001a1.921 1.921 0 0 1 1.82 2.084l.001-.007a1.902 1.902 0 0 1-1.816 2.049h-.004zM81.445 14h-3.577v10h1.492v-3.789h2.085A3.11 3.11 0 1 0 81.437 14h.008zm.038 4.82H79.36v-3.429h2.16a1.714 1.714 0 0 1 0 3.428h-.039.002zm9.226-1.44a2.802 2.802 0 0 0-2.656 1.515l-.007.016 1.326.553a1.418 1.418 0 0 1 1.369-.733h-.005a1.44 1.44 0 0 1 1.569 1.281l.001.006v.102a3.261 3.261 0 0 0-1.549-.386h-.008c-1.428 0-2.88.785-2.88 2.251a2.312 2.312 0 0 0 2.488 2.2h-.008a2.104 2.104 0 0 0 1.9-.97l.005-.008h.051v.772h1.44v-3.83c.002-1.776-1.323-2.766-3.034-2.766zm-.181 5.481c-.489 0-1.17-.24-1.17-.849 0-.772.849-1.068 1.582-1.068l.066-.001c.475 0 .921.124 1.307.342l-.013-.007a1.813 1.813 0 0 1-1.771 1.586h-.001zm8.466-5.261-1.711 4.336h-.051L95.456 17.6h-1.608l2.663 6.06-1.52 3.371h1.557l4.106-9.431zM85.549 24h1.491V14h-1.493z"/><path fill="#fff" d="M8.348 6.03a1.592 1.592 0 0 0-.37 1.124V7.15v17.697a1.592 1.592 0 0 0 .372 1.122l-.002-.002.059.058 9.913-9.907v-.234L8.407 5.973zM21.622 19.423l-3.302-3.306v-.234l3.305-3.304.074.042 3.914 2.224c1.12.635 1.12 1.674 0 2.31l-3.914 2.225z"/><path fill="#fff" d="M21.698 19.38 18.32 16l-9.972 9.971c.228.202.53.325.861.325.304 0 .583-.104.805-.279l-.003.002 11.687-6.64z"/><path fill="#fff" d="m21.698 12.622-11.687-6.64a1.296 1.296 0 0 0-1.664.05l.001-.001 9.972 9.97z"/><path style="fill:var(--color1,#000)" opacity=".2" d="M21.623 19.306 10.01 25.904a1.332 1.332 0 0 1-1.604.007l.003.002-.06.06.059.058a1.325 1.325 0 0 0 1.603-.011l-.003.002 11.687-6.64z"/><path style="fill:var(--color1,#000)" opacity=".12" d="M8.348 25.854a1.592 1.592 0 0 1-.37-1.124V24.851a1.597 1.597 0 0 0 .372 1.127l-.002-.002.06-.06zM25.612 17.04l-3.989 2.266.074.074 3.914-2.224c.462-.204.788-.637.838-1.151v-.006a1.497 1.497 0 0 1-.829 1.036l-.009.004z"/><path fill="#fff" style="fill:var(--color3,#fff)" opacity=".25" d="m10.01 6.098 15.6 8.864c.424.196.735.572.838 1.028l.002.01a1.41 1.41 0 0 0-.829-1.152l-.009-.004-15.6-8.864c-1.12-.635-2.033-.107-2.033 1.174v.118c-.002-1.281.914-1.809 2.031-1.174z"/><path fill="#fff" style="fill:var(--color3,#fff)" d="M34.654 10.533a1.677 1.677 0 0 1-.944-.304l.005.004a1.561 1.561 0 0 1-.627-.885l-.002-.011.588-.246a1.2 1.2 0 0 0 .37.608l.001.001a.912.912 0 0 0 .592.217h.018-.001.02a.994.994 0 0 0 .656-.246l-.001.001a.774.774 0 0 0 .283-.598v-.012.001-.005a.757.757 0 0 0-.289-.596l-.002-.001a1.041 1.041 0 0 0-.672-.245h-.025.001-.414v-.602h.365l.032.001a.935.935 0 0 0 .593-.211l-.002.001a.698.698 0 0 0 .249-.533l-.001-.028v.001l.001-.027a.621.621 0 0 0-.239-.49l-.001-.001a.94.94 0 0 0-.568-.189l-.032.001h.002l-.033-.001a.824.824 0 0 0-.798.618l-.001.006-.596-.252a1.64 1.64 0 0 1 .494-.684l.003-.002c.236-.189.539-.303.869-.303l.069.002h-.003l.054-.001c.389 0 .745.142 1.019.377l-.002-.002c.262.223.428.553.428.921v.029-.001l.001.033c0 .44-.26.819-.634.993l-.007.003v.028c.235.098.43.252.575.444l.003.004c.142.19.227.429.227.688v.027-.001.031c0 .408-.181.774-.467 1.022l-.002.001a1.665 1.665 0 0 1-1.105.417l-.049-.001h.002zM36.67 10.421l1.89-5.012h.728l1.89 5.012h-.714l-.48-1.36h-2.11l-.491 1.36zm1.42-1.96h1.67L38.938 6.2h-.028zM41.824 10.421V5.409h1.837c.384 0 .734.148.996.39l-.001-.001c.265.231.431.569.431.946v.031-.002.02c0 .227-.069.439-.187.614l.002-.004c-.123.18-.29.321-.486.41l-.007.003v.028c.248.084.456.235.607.431l.002.003c.15.19.24.433.24.697v.018-.001.025c0 .398-.176.754-.455.996l-.002.001a1.543 1.543 0 0 1-1.046.406h-.023.001zm.64-2.863h1.17l.032.001a.752.752 0 0 0 .552-.24.748.748 0 0 0 .007-1.055.717.717 0 0 0-.537-.24h-.024.001-1.2zm0 2.247h1.322c.229 0 .434-.1.575-.259l.001-.001a.825.825 0 0 0 .23-.566v-.001a.841.841 0 0 0-.841-.819h-1.283zM45.575 10.421l1.89-5.012h.728l1.887 5.012h-.714l-.48-1.36h-2.107l-.491 1.36zm1.42-1.96h1.666L47.839 6.2h-.028zM50.73 10.421V5.409h.64v2.149h2.506V5.409h.64v5.012h-.64V8.16h-2.502v2.261zM57.258 10.421h-.644V6.025h-1.4v-.616h3.444v.616h-1.4zM58.487 10.421l1.89-5.012h.728l1.89 5.012h-.714l-.48-1.36h-2.11l-.491 1.36zm1.421-1.96h1.666L60.755 6.2h-.028zM66.842 8.125v2.296h-.644V8.125h-.028l-1.946 2.296h-.84v-.028l2.114-2.422-2.03-2.53V5.41h.784l1.92 2.436h.028V5.41h.644v2.436h.028l1.92-2.436h.785v.031l-2.034 2.53 2.114 2.422v.028h-.84l-1.946-2.296zM74.133 5.409v5.012h-.64v-3.12l.027-.968h-.028l-2.548 4.088h-.672V5.409h.644v2.933l-.028.966h.028l2.436-3.899zM76.867 10.421h-.644V6.025h-1.4v-.616h3.444v.616h-1.4zM82.845 5.409v5.012h-.64v-3.12l.028-.966h-.028l-2.549 4.088h-.672V5.409h.644v2.933l-.028.966h.027l2.437-3.899zM86.71 10.533a1.677 1.677 0 0 1-.944-.304l.005.004a1.557 1.557 0 0 1-.627-.885l-.002-.011.587-.246a1.2 1.2 0 0 0 .37.608l.001.001a.913.913 0 0 0 .593.217h.017-.001.02a.994.994 0 0 0 .656-.246l-.001.001a.77.77 0 0 0 .284-.598v-.012.001-.005a.757.757 0 0 0-.289-.596l-.002-.001a1.045 1.045 0 0 0-.674-.245h-.025.001-.413v-.602h.364l.035.001a.928.928 0 0 0 .593-.212l-.002.001a.695.695 0 0 0 .249-.534l-.001-.028v.001l.001-.027a.624.624 0 0 0-.239-.491l-.001-.001a.938.938 0 0 0-.567-.189l-.033.001h.002l-.033-.001a.824.824 0 0 0-.798.618l-.001.006-.595-.252c.106-.276.277-.508.494-.684l.003-.002c.236-.188.538-.302.867-.302l.067.002h-.003l.053-.001c.39 0 .746.142 1.02.377l-.002-.002c.262.223.427.553.427.921v.029-.001.031c0 .441-.261.822-.638.995l-.007.003v.028c.235.098.43.252.575.445l.003.004c.142.19.227.429.227.688v.027-.001.032c0 .408-.181.774-.467 1.021l-.002.001a1.66 1.66 0 0 1-1.103.417l-.048-.001h.002z"/></symbol><symbol id="icon-app-store-ua" viewBox="0 0 108 32"><path fill="#a6a6a6" d="M88.108 0H7.628c-.293 0-.583 0-.876.002-.245.002-.488.006-.735.01-.571.007-1.125.058-1.666.15l.063-.009a5.324 5.324 0 0 0-1.551.516l.03-.014a5.18 5.18 0 0 0-1.295.943c-.373.37-.687.798-.929 1.269l-.013.028A5.172 5.172 0 0 0 .16 4.386l-.004.031a10.005 10.005 0 0 0-.143 1.595v.007c-.007.245-.008.491-.012.737v18.491c.004.248.005.489.012.738.007.571.059 1.124.152 1.663l-.009-.062c.097.571.271 1.082.514 1.553l-.014-.029c.255.497.57.923.942 1.291l.001.001c.369.373.797.687 1.267.93l.028.013c.44.229.95.405 1.488.5l.032.005c.477.083 1.031.134 1.596.141h.008c.247.005.49.009.735.009.293.002.582.002.876.002h80.48c.288 0 .58 0 .867-.002.244 0 .494-.003.738-.009a10.633 10.633 0 0 0 1.663-.15l-.063.009a5.416 5.416 0 0 0 1.557-.519l-.031.014a5.043 5.043 0 0 0 1.293-.943c.372-.369.687-.795.932-1.263l.013-.028c.227-.441.4-.953.491-1.492l.004-.031a10.4 10.4 0 0 0 .148-1.591v-.01c.003-.248.003-.489.003-.738.006-.291.006-.58.006-.875V7.631c0-.293 0-.584-.006-.873 0-.245 0-.491-.003-.737a10.878 10.878 0 0 0-.158-1.666l.009.064a5.28 5.28 0 0 0-.509-1.553l.014.03A5.207 5.207 0 0 0 92.867.67l-.029-.014a5.285 5.285 0 0 0-1.494-.497l-.032-.005a10.001 10.001 0 0 0-1.594-.141h-.006c-.244-.004-.494-.009-.738-.01-.288-.002-.58-.002-.867-.002z"/><path d="M6.756 31.3c-.244 0-.482-.003-.723-.009a10.135 10.135 0 0 1-1.555-.139l.059.008a4.69 4.69 0 0 1-1.352-.451l.026.012a4.338 4.338 0 0 1-1.117-.813 4.27 4.27 0 0 1-.805-1.093l-.011-.024a4.483 4.483 0 0 1-.431-1.299l-.004-.027a9.614 9.614 0 0 1-.133-1.493v-.007c-.005-.169-.012-.73-.012-.73V6.755s.007-.553.012-.716c.007-.534.055-1.052.141-1.556l-.008.059c.084-.498.235-.945.447-1.356l-.012.026a4.47 4.47 0 0 1 1.909-1.924l.025-.012A4.558 4.558 0 0 1 4.507.845l.028-.004A9.75 9.75 0 0 1 6.029.71h.007L6.758.7l82.945.01c.53.006 1.044.054 1.545.138L91.19.84c.501.087.95.239 1.364.451l-.027-.012a4.506 4.506 0 0 1 1.92 1.911l.012.025a4.5 4.5 0 0 1 .424 1.292l.004.027c.078.447.129.968.139 1.5v.01c.002.227.002.47.002.712.006.3.006.586.006.873v16.743c0 .291 0 .574-.006.86 0 .26 0 .498-.003.744a10.31 10.31 0 0 1-.145 1.543l.009-.06c-.082.5-.233.949-.444 1.362l.012-.026a4.416 4.416 0 0 1-.812 1.108 4.377 4.377 0 0 1-1.095.807l-.024.011c-.386.2-.834.353-1.306.436l-.028.004a9.565 9.565 0 0 1-1.489.13h-.007c-.234.005-.48.009-.718.009l-.867.002z"/><path fill="#fff" d="M19.815 16.241a3.958 3.958 0 0 1 1.869-3.312l.017-.01a4.052 4.052 0 0 0-3.186-1.726h-.006c-1.343-.141-2.646.804-3.33.804-.698 0-1.752-.79-2.887-.767a4.252 4.252 0 0 0-3.567 2.161l-.011.021c-1.547 2.679-.393 6.616 1.089 8.781.742 1.06 1.608 2.245 2.742 2.203 1.11-.046 1.524-.708 2.864-.708 1.327 0 1.716.708 2.873.681 1.191-.019 1.941-1.065 2.656-2.135.506-.71.92-1.531 1.198-2.412l.017-.062a3.831 3.831 0 0 1-2.335-3.519zM17.63 9.769a3.876 3.876 0 0 0 .891-2.806l.001.014A3.967 3.967 0 0 0 15.96 8.3l-.004.004a3.692 3.692 0 0 0-.915 2.7l-.001-.011h.034c1.03 0 1.95-.475 2.551-1.218l.005-.006zM33.842 21.712h-3.787l-.909 2.685h-1.604l3.587-9.934h1.666l3.587 9.934h-1.631zm-3.395-1.239h3.002l-1.48-4.358h-.041zM44.128 20.776c0 2.251-1.205 3.697-3.023 3.697a2.454 2.454 0 0 1-2.272-1.255l-.006-.012h-.034v3.587h-1.487v-9.639h1.439v1.205h.027a2.573 2.573 0 0 1 2.31-1.281h-.004c1.838 0 3.05 1.453 3.05 3.698zm-1.528 0c0-1.466-.758-2.43-1.914-2.43-1.136 0-1.9.984-1.9 2.43 0 1.459.764 2.437 1.9 2.437 1.156 0 1.914-.957 1.914-2.437zM52.1 20.776c0 2.251-1.205 3.697-3.023 3.697a2.454 2.454 0 0 1-2.272-1.255l-.006-.012h-.034v3.587h-1.487v-9.639h1.439v1.205h.027a2.573 2.573 0 0 1 2.31-1.281h-.004c1.838 0 3.05 1.453 3.05 3.698zm-1.528 0c0-1.466-.758-2.43-1.914-2.43-1.136 0-1.9.984-1.9 2.43 0 1.459.764 2.437 1.9 2.437 1.156 0 1.914-.957 1.914-2.437zM57.368 21.629c.11.985 1.067 1.632 2.375 1.632 1.253 0 2.155-.647 2.155-1.535 0-.771-.544-1.233-1.831-1.549l-1.288-.31c-1.824-.441-2.671-1.294-2.671-2.678 0-1.714 1.494-2.891 3.615-2.891 2.099 0 3.538 1.177 3.587 2.891h-1.501c-.09-.991-.909-1.59-2.107-1.59s-2.017.605-2.017 1.487c0 .702.523 1.116 1.804 1.432l1.095.269c2.038.482 2.885 1.301 2.885 2.754 0 1.859-1.48 3.023-3.835 3.023-2.203 0-3.691-1.137-3.787-2.934zM66.677 15.44v1.714h1.377v1.177h-1.377v3.993c0 .62.276.909.881.909.176-.003.345-.016.512-.037l-.023.002v1.17a3.986 3.986 0 0 1-.75.069l-.08-.001h.004c-1.466 0-2.038-.551-2.038-1.955v-4.152H64.13v-1.177h1.053v-1.714zM68.852 20.776c0-2.279 1.342-3.711 3.435-3.711 2.1 0 3.436 1.432 3.436 3.711 0 2.285-1.329 3.711-3.436 3.711s-3.435-1.426-3.435-3.711zm5.356 0c0-1.563-.716-2.486-1.921-2.486s-1.92.93-1.92 2.486c0 1.57.716 2.485 1.92 2.485s1.921-.916 1.921-2.485zM76.949 17.154h1.418v1.233h.034a1.732 1.732 0 0 1 1.745-1.309h-.003.008c.178 0 .351.02.517.058l-.015-.003v1.391a2.022 2.022 0 0 0-.607-.091l-.064.001h.003l-.061-.001a1.498 1.498 0 0 0-1.488 1.675l-.001-.007v4.296h-1.487zM87.507 22.27c-.2 1.315-1.48 2.217-3.119 2.217-2.107 0-3.415-1.412-3.415-3.677 0-2.272 1.315-3.745 3.352-3.745 2.004 0 3.264 1.377 3.264 3.573v.509h-5.116v.09a1.886 1.886 0 0 0 1.879 2.052l.073-.001h-.004a1.64 1.64 0 0 0 1.669-1.008l.004-.011zm-5.025-2.162h3.621a1.742 1.742 0 0 0-1.739-1.839h-.039.002-.011a1.834 1.834 0 0 0-1.834 1.834v.005zM34.654 10.533a1.677 1.677 0 0 1-.944-.304l.005.004a1.561 1.561 0 0 1-.627-.885l-.002-.011.588-.246a1.2 1.2 0 0 0 .37.608l.001.001a.912.912 0 0 0 .592.217h.018-.001.02a.994.994 0 0 0 .656-.246l-.001.001a.774.774 0 0 0 .283-.598v-.012.001-.005a.757.757 0 0 0-.289-.596l-.002-.001a1.041 1.041 0 0 0-.672-.245h-.025.001-.414v-.602h.365l.032.001a.935.935 0 0 0 .593-.211l-.002.001a.698.698 0 0 0 .249-.533l-.001-.028v.001l.001-.027a.621.621 0 0 0-.239-.49l-.001-.001a.94.94 0 0 0-.568-.189l-.032.001h.002l-.033-.001a.824.824 0 0 0-.798.618l-.001.006-.596-.252a1.64 1.64 0 0 1 .494-.684l.003-.002c.236-.189.539-.303.869-.303l.069.002h-.003l.054-.001c.389 0 .745.142 1.019.377l-.002-.002c.262.223.428.553.428.921v.029-.001l.001.033c0 .44-.26.819-.634.993l-.007.003v.028c.235.098.43.252.575.444l.003.004c.142.19.227.429.227.688v.027-.001.031c0 .408-.181.774-.467 1.022l-.002.001a1.665 1.665 0 0 1-1.105.417l-.049-.001h.002z"/><path fill="#fff" style="fill:var(--color3,#fff)" d="m36.67 10.421 1.89-5.012h.728l1.89 5.012h-.714l-.48-1.36h-2.11l-.491 1.36zm1.42-1.96h1.67L38.938 6.2h-.028zM41.824 10.421V5.409h1.837c.384 0 .734.148.996.39l-.001-.001c.265.231.431.569.431.946v.031-.002.02c0 .227-.069.439-.187.614l.002-.004c-.123.18-.29.321-.486.41l-.007.003v.028c.248.084.456.235.607.431l.002.003c.15.19.24.433.24.697v.018-.001.025c0 .398-.176.754-.455.996l-.002.001a1.543 1.543 0 0 1-1.046.406h-.023.001zm.64-2.863h1.17l.032.001a.752.752 0 0 0 .552-.24.748.748 0 0 0 .007-1.055.717.717 0 0 0-.537-.24h-.024.001-1.2zm0 2.247h1.322c.229 0 .434-.1.575-.259l.001-.001a.825.825 0 0 0 .23-.566v-.001a.841.841 0 0 0-.841-.819h-1.283zM45.575 10.421l1.89-5.012h.728l1.887 5.012h-.714l-.48-1.36h-2.107l-.491 1.36zm1.42-1.96h1.666L47.839 6.2h-.028zM50.73 10.421V5.409h.64v2.149h2.506V5.409h.64v5.012h-.64V8.16h-2.502v2.261zM57.258 10.421h-.644V6.025h-1.4v-.616h3.444v.616h-1.4zM58.487 10.421l1.89-5.012h.728l1.89 5.012h-.714l-.48-1.36h-2.11l-.491 1.36zm1.421-1.96h1.666L60.755 6.2h-.028zM66.842 8.125v2.296h-.644V8.125h-.028l-1.946 2.296h-.84v-.028l2.114-2.422-2.03-2.53V5.41h.784l1.92 2.436h.028V5.41h.644v2.436h.028l1.92-2.436h.785v.031l-2.034 2.53 2.114 2.422v.028h-.84l-1.946-2.296zM74.133 5.409v5.012h-.64v-3.12l.027-.968h-.028l-2.548 4.088h-.672V5.409h.644v2.933l-.028.966h.028l2.436-3.899zM76.867 10.421h-.644V6.025h-1.4v-.616h3.444v.616h-1.4zM82.845 5.409v5.012h-.64v-3.12l.028-.966h-.028l-2.549 4.088h-.672V5.409h.644v2.933l-.028.966h.027l2.437-3.899z"/><path fill="#fff" d="M86.71 10.533a1.677 1.677 0 0 1-.944-.304l.005.004a1.557 1.557 0 0 1-.627-.885l-.002-.011.587-.246a1.2 1.2 0 0 0 .37.608l.001.001a.913.913 0 0 0 .593.217h.017-.001.02a.994.994 0 0 0 .656-.246l-.001.001a.77.77 0 0 0 .284-.598v-.012.001-.005a.757.757 0 0 0-.289-.596l-.002-.001a1.045 1.045 0 0 0-.674-.245h-.025.001-.413v-.602h.364l.035.001a.928.928 0 0 0 .593-.212l-.002.001a.695.695 0 0 0 .249-.534l-.001-.028v.001l.001-.027a.624.624 0 0 0-.239-.491l-.001-.001a.938.938 0 0 0-.567-.189l-.033.001h.002l-.033-.001a.824.824 0 0 0-.798.618l-.001.006-.595-.252c.106-.276.277-.508.494-.684l.003-.002c.236-.188.538-.302.867-.302l.067.002h-.003l.053-.001c.39 0 .746.142 1.02.377l-.002-.002c.262.223.427.553.427.921v.029-.001.031c0 .441-.261.822-.638.995l-.007.003v.028c.235.098.43.252.575.445l.003.004c.142.19.227.429.227.688v.027-.001.032c0 .408-.181.774-.467 1.021l-.002.001a1.66 1.66 0 0 1-1.103.417l-.048-.001h.002z"/></symbol><symbol id="icon-day" viewBox="0 0 32 32"><path d="M4 15H1a1 1 0 0 0 0 2h3a1 1 0 0 0 0-2zM16 5a1 1 0 0 0 1-1V1a1 1 0 0 0-2 0v3a1 1 0 0 0 1 1zm9.621 2.78 2.101-2.101a.99.99 0 1 0-1.401-1.401L24.22 6.379a.99.99 0 1 0 1.401 1.401zM7.41 23.19l-2.101 2.101a.99.99 0 1 0 1.401 1.401l2.101-2.101A.99.99 0 1 0 7.41 23.19zM6.808 8.222a.999.999 0 1 0 1.414-1.414L6.101 4.686A.999.999 0 1 0 4.687 6.1l2.121 2.122zM16 27a1 1 0 0 0-1 1v3a1 1 0 0 0 2 0v-3a1 1 0 0 0-1-1zm9.192-3.222a.999.999 0 1 0-1.414 1.414l2.121 2.121a.999.999 0 1 0 1.414-1.414l-2.121-2.121zM31 15h-3a1 1 0 0 0 0 2h3a1 1 0 0 0 0-2zM16 6.994c-4.974 0-9.006 4.032-9.006 9.006s4.032 9.006 9.006 9.006 9.006-4.032 9.006-9.006S20.974 6.994 16 6.994zm0 16.004a6.998 6.998 0 1 1 0-13.996 6.998 6.998 0 0 1 0 13.996z"/></symbol><symbol id="icon-night" viewBox="0 0 32 32"><path d="M29.687 23.476a13.46 13.46 0 0 1-3.307.413c-6.07 0-11.42-4.096-13.01-9.961-1.238-4.571-.034-9.358 3.223-12.805L17.654 0 16.11.066a16.078 16.078 0 0 0-3.503.54C4.107 2.912-.934 11.702 1.37 20.203c1.883 6.946 8.218 11.796 15.407 11.796a16.04 16.04 0 0 0 4.188-.56 15.92 15.92 0 0 0 9.408-7.026l.813-1.316-1.5.379zm-9.05 6.755a14.787 14.787 0 0 1-3.86.516c-6.624 0-12.462-4.47-14.197-10.871C.457 12.042 5.101 3.942 12.935 1.819a14.529 14.529 0 0 1 1.727-.357c-2.781 3.635-3.718 8.311-2.502 12.796 1.737 6.41 7.586 10.886 14.22 10.886.692 0 1.384-.05 2.072-.147a14.67 14.67 0 0 1-7.815 5.235zM17.435 8.098l3.074-.873.94-3.052.874 3.072 3.054.941-3.074.874-.94 3.053-.873-3.072-3.053-.942zm6.684 5.261 2.137-.699.575-2.172.699 2.135 2.173.578-2.136.698-.577 2.172-.698-2.135-2.173-.577z"/></symbol></defs></svg>